<svg width="18" height="16" viewBox="0 0 18 16" fill="none" xmlns="http://www.w3.org/2000/svg">
<path fill-rule="evenodd" clip-rule="evenodd" d="M10.823 0.0981492C10.4646 -0.00609638 10.0861 -0.0276613 9.7177 0.035176C9.34924 0.0980132 9.00104 0.243512 8.70088 0.460059C8.40073 0.676606 8.15692 0.958204 7.98894 1.28237C7.82095 1.60655 7.73344 1.96431 7.73337 2.32712V13.6729C7.73344 14.0357 7.82095 14.3935 7.98894 14.7176C8.15692 15.0418 8.40073 15.3234 8.70088 15.5399C9.00104 15.7565 9.34924 15.902 9.7177 15.9648C10.0861 16.0277 10.4646 16.0061 10.823 15.9019L15.623 14.5054C16.1173 14.3615 16.5506 14.067 16.8587 13.6655C17.1669 13.264 17.3333 12.7769 17.3334 12.2764V3.72361C17.3333 3.22312 17.1669 2.73599 16.8587 2.33447C16.5506 1.93296 16.1173 1.63845 15.623 1.49465L10.823 0.0981492V0.0981492ZM6.93337 1.79334C6.93337 1.58758 6.84909 1.39024 6.69906 1.24475C6.54903 1.09925 6.34555 1.01751 6.13337 1.01751H3.73337C3.09685 1.01751 2.4864 1.26273 2.03632 1.69922C1.58623 2.13571 1.33337 2.72772 1.33337 3.34501V4.12084C1.33337 4.3266 1.41766 4.52394 1.56769 4.66943C1.71772 4.81493 1.9212 4.89667 2.13337 4.89667C2.34555 4.89667 2.54903 4.81493 2.69906 4.66943C2.84909 4.52394 2.93337 4.3266 2.93337 4.12084V3.34501C2.93337 3.13924 3.01766 2.94191 3.16769 2.79641C3.31772 2.65091 3.5212 2.56917 3.73337 2.56917H6.13337C6.34555 2.56917 6.54903 2.48744 6.69906 2.34194C6.84909 2.19644 6.93337 1.99911 6.93337 1.79334ZM2.13337 11.1033C1.9212 11.1033 1.71772 11.1851 1.56769 11.3306C1.41766 11.4761 1.33337 11.6734 1.33337 11.8792V12.655C1.33337 13.2723 1.58623 13.8643 2.03632 14.3008C2.4864 14.7373 3.09685 14.9825 3.73337 14.9825H6.13337C6.34555 14.9825 6.54903 14.9008 6.69906 14.7553C6.84909 14.6098 6.93337 14.4124 6.93337 14.2067C6.93337 14.0009 6.84909 13.8036 6.69906 13.6581C6.54903 13.5126 6.34555 13.4308 6.13337 13.4308H3.73337C3.5212 13.4308 3.31772 13.3491 3.16769 13.2036C3.01766 13.0581 2.93337 12.8608 2.93337 12.655V11.8792C2.93337 11.6734 2.84909 11.4761 2.69906 11.3306C2.54903 11.1851 2.34555 11.1033 2.13337 11.1033ZM11.7334 7.22417C11.9455 7.22417 12.149 7.30591 12.2991 7.4514C12.4491 7.5969 12.5334 7.79424 12.5334 8C12.5334 8.20576 12.4491 8.4031 12.2991 8.5486C12.149 8.69409 11.9455 8.77583 11.7334 8.77583H11.7326C11.5204 8.77583 11.3169 8.69409 11.1669 8.5486C11.0169 8.4031 10.9326 8.20576 10.9326 8C10.9326 7.79424 11.0169 7.5969 11.1669 7.4514C11.3169 7.30591 11.5204 7.22417 11.7326 7.22417H11.7334Z" fill="#333333"/>
<path d="M6.13336 7.99991H2.13336M2.13336 7.99991L3.73336 6.44824M2.13336 7.99991L3.73336 9.55157" stroke="#333333" stroke-width="3.33333" stroke-linecap="round" stroke-linejoin="round"/>
</svg>
